0
SECTION
2
HEADER
9
$INSUNITS
70
4
9
$ACADVER
1
AC1014
9
$HANDSEED
5
FFFF
0
ENDSEC
0
SECTION
2
TABLES
0
TABLE
2
VPORT
5
8
100
AcDbSymbolTable
0
ENDTAB
0
TABLE
2
LTYPE
5
5
100
AcDbSymbolTable
0
LTYPE
5
14
100
AcDbSymbolTableRecord
100
AcDbLinetypeTableRecord
2
BYBLOCK
70
0
0
LTYPE
5
15
100
AcDbSymbolTableRecord
100
AcDbLinetypeTableRecord
2
BYLAYER
70
0
0
ENDTAB
0
TABLE
2
LAYER
5
2
100
AcDbSymbolTable
70
2
0
LAYER
5
50
100
AcDbSymbolTableRecord
100
AcDbLayerTableRecord
2
0
70
0
6
CONTINUOUS
0
ENDTAB
0
TABLE
2
STYLE
5
3
100
AcDbSymbolTable
70
1
0
STYLE
5
11
100
AcDbSymbolTableRecord
100
AcDbTextStyleTableRecord
2
STANDARD
70
0
0
ENDTAB
0
TABLE
2
VIEW
5
6
100
AcDbSymbolTable
70
0
0
ENDTAB
0
TABLE
2
UCS
5
7
100
AcDbSymbolTable
70
0
0
ENDTAB
0
TABLE
2
APPID
5
9
100
AcDbSymbolTable
70
2
0
APPID
5
12
100
AcDbSymbolTableRecord
100
AcDbRegAppTableRecord
2
ACAD
70
0
0
ENDTAB
0
TABLE
2
DIMSTYLE
5
A
100
AcDbSymbolTable
70
1
0
ENDTAB
0
TABLE
2
BLOCK_RECORD
5
1
100
AcDbSymbolTable
70
1
0
BLOCK_RECORD
5
1F
100
AcDbSymbolTableRecord
100
AcDbBlockTableRecord
2
*MODEL_SPACE
0
BLOCK_RECORD
5
1B
100
AcDbSymbolTableRecord
100
AcDbBlockTableRecord
2
*PAPER_SPACE
0
ENDTAB
0
ENDSEC
0
SECTION
2
BLOCKS
0
BLOCK
5
20
100
AcDbEntity
100
AcDbBlockBegin
2
*MODEL_SPACE
0
ENDBLK
5
21
100
AcDbEntity
100
AcDbBlockEnd
0
BLOCK
5
1C
100
AcDbEntity
100
AcDbBlockBegin
2
*PAPER_SPACE
0
ENDBLK
5
1D
100
AcDbEntity
100
AcDbBlockEnd
0
ENDSEC
0
SECTION
2
ENTITIES
0
LWPOLYLINE
5
100
100
AcDbEntity
8
0
100
AcDbPolyline
90
4
70
1
43
0.0
10
0
20
0
10
1132.0000000000002
20
0
10
1132.0000000000002
20
556.00000000000011
10
0
20
556.00000000000011
0
LINE
5
101
100
AcDbEntity
8
0
100
AcDbLine
10
422
20
0
30
0
11
422
21
556.00000000000011
31
0
0
LINE
5
102
100
AcDbEntity
8
0
100
AcDbLine
10
-1.9721522630525295e-30
20
556.00000000000011
30
0
11
0
21
0
31
0
0
LINE
5
103
100
AcDbEntity
8
0
100
AcDbLine
10
566.00000000000011
20
0
30
0
11
566.00000000000011
21
556.00000000000011
31
0
0
LINE
5
104
100
AcDbEntity
8
0
100
AcDbLine
10
710.00000000000011
20
0
30
0
11
710.00000000000011
21
556.00000000000011
31
0
0
LINE
5
105
100
AcDbEntity
8
0
100
AcDbLine
10
1132.0000000000002
20
0
30
0
11
1132.0000000000002
21
556.00000000000011
31
0
0
CIRCLE
5
106
100
AcDbEntity
8
0
100
AcDbCircle
10
422
20
50
30
0
40
2.4999999999999787
210
0
220
0
230
1
0
LINE
5
107
100
AcDbEntity
8
0
100
AcDbLine
10
0
20
0
30
0
11
1132.0000000000002
21
0
31
0
0
CIRCLE
5
108
100
AcDbEntity
8
0
100
AcDbCircle
10
710
20
50
30
0
40
2.4999999999999787
210
0
220
0
230
1
0
CIRCLE
5
109
100
AcDbEntity
8
0
100
AcDbCircle
10
422
20
141.20000000000002
30
0
40
2.4999999999999787
210
0
220
0
230
1
0
CIRCLE
5
110
100
AcDbEntity
8
0
100
AcDbCircle
10
710
20
141.20000000000002
30
0
40
2.4999999999999787
210
0
220
0
230
1
0
CIRCLE
5
111
100
AcDbEntity
8
0
100
AcDbCircle
10
422
20
232.40000000000003
30
0
40
2.4999999999999787
210
0
220
0
230
1
0
CIRCLE
5
112
100
AcDbEntity
8
0
100
AcDbCircle
10
710
20
232.40000000000003
30
0
40
2.4999999999999787
210
0
220
0
230
1
0
CIRCLE
5
113
100
AcDbEntity
8
0
100
AcDbCircle
10
422
20
323.60000000000002
30
0
40
2.4999999999999787
210
0
220
0
230
1
0
CIRCLE
5
114
100
AcDbEntity
8
0
100
AcDbCircle
10
710
20
323.60000000000002
30
0
40
2.4999999999999787
210
0
220
0
230
1
0
CIRCLE
5
115
100
AcDbEntity
8
0
100
AcDbCircle
10
422
20
414.80000000000007
30
0
40
2.4999999999999787
210
0
220
0
230
1
0
CIRCLE
5
116
100
AcDbEntity
8
0
100
AcDbCircle
10
710
20
414.80000000000007
30
0
40
2.4999999999999787
210
0
220
0
230
1
0
CIRCLE
5
117
100
AcDbEntity
8
0
100
AcDbCircle
10
422
20
506.00000000000011
30
0
40
2.4999999999999787
210
0
220
0
230
1
0
CIRCLE
5
118
100
AcDbEntity
8
0
100
AcDbCircle
10
710
20
506.00000000000011
30
0
40
2.4999999999999787
210
0
220
0
230
1
0
LINE
5
119
100
AcDbEntity
8
0
100
AcDbLine
10
412
20
0
30
0
11
412
21
556.00000000000011
31
0
0
LINE
5
120
100
AcDbEntity
8
0
100
AcDbLine
10
432
20
556.00000000000011
30
0
11
432
21
0
31
0
0
LINE
5
121
100
AcDbEntity
8
0
100
AcDbLine
10
700.00000000000011
20
0
30
0
11
700.00000000000011
21
556.00000000000011
31
0
0
LINE
5
122
100
AcDbEntity
8
0
100
AcDbLine
10
720.00000000000011
20
0
30
0
11
720.00000000000011
21
556.00000000000011
31
0
0
LINE
5
123
100
AcDbEntity
8
0
100
AcDbLine
10
-1.9049740910064745e-30
20
536.00000000000011
30
0
11
1132.0000000000002
21
536.00000000000011
31
0
0
LINE
5
124
100
AcDbEntity
8
0
100
AcDbLine
10
1132.0000000000002
20
278.00000000000006
30
0
11
-9.8607613152626476e-31
21
278.00000000000006
31
0
0
LINE
5
125
100
AcDbEntity
8
0
100
AcDbLine
10
1132.0000000000002
20
20
30
0
11
-7.0940728886781634e-32
21
20
31
0
0
LINE
5
126
100
AcDbEntity
8
0
100
AcDbLine
10
1132.0000000000002
20
556.00000000000011
30
0
11
-1.9721522630525295e-30
21
556.00000000000011
31
0
0
LINE
5
127
100
AcDbEntity
8
0
100
AcDbLine
10
20
20
0
30
0
11
20
21
556.00000000000011
31
0
0
LINE
5
128
100
AcDbEntity
8
0
100
AcDbLine
10
1112.0000000000002
20
556.00000000000011
30
0
11
1112.0000000000002
21
0
31
0
0
LINE
5
129
100
AcDbEntity
8
0
100
AcDbLine
10
0
20
170.9999999999998
30
0
11
1132.0000000000002
21
170.99999999999994
31
0
0
LINE
5
130
100
AcDbEntity
8
0
100
AcDbLine
10
1132.0000000000002
20
182.00000000000003
30
0
11
-1.1230017936567821e-14
21
181.99999999999994
31
0
0
LINE
5
131
100
AcDbEntity
8
0
100
AcDbLine
10
-6.8457803375744292e-31
20
193.00000000000006
30
0
11
1132.0000000000002
21
193.00000000000011
31
0
0
LINE
5
132
100
AcDbEntity
8
0
100
AcDbLine
10
1132.0000000000002
20
363
30
0
11
-1.287574229295086e-30
21
362.99999999999977
31
0
0
LINE
5
133
100
AcDbEntity
8
0
100
AcDbLine
10
-1.3656090310705463e-30
20
384.99999999999994
30
0
11
1132.0000000000002
21
385.00000000000011
31
0
0
LINE
5
134
100
AcDbEntity
8
0
100
AcDbLine
10
432
20
144
30
0
11
700.00000000000011
21
144.00000000000003
31
0
0
LINE
5
135
100
AcDbEntity
8
0
100
AcDbLine
10
700.00000000000011
20
124.00000000000006
30
0
11
432
21
124
31
0
0
LINE
5
136
100
AcDbEntity
8
0
100
AcDbLine
10
432
20
412.00000000000011
30
0
11
700.00000000000023
21
412
31
0
0
LINE
5
137
100
AcDbEntity
8
0
100
AcDbLine
10
700.00000000000011
20
432.00000000000017
30
0
11
432
21
432.00000000000011
31
0
0
LINE
5
138
100
AcDbEntity
8
0
100
AcDbLine
10
432
20
422.00000000000011
30
0
11
700.00000000000011
21
422.00000000000011
31
0
0
LINE
5
139
100
AcDbEntity
8
0
100
AcDbLine
10
700.00000000000011
20
134.00000000000006
30
0
11
432
21
134
31
0
0
LWPOLYLINE
5
140
100
AcDbEntity
8
0
100
AcDbPolyline
90
4
70
1
43
0.0
10
700.00000000000011
20
278.00000000000006
10
566.00000000000011
20
144.00000000000003
10
432
20
278.00000000000006
10
566.00000000000011
20
412.00000000000011
0
LINE
5
141
100
AcDbEntity
8
0
100
AcDbLine
10
594.28427124746213
20
144.00000000000003
30
0
11
700.00000000000011
21
249.71572875253861
31
0
0
LINE
5
142
100
AcDbEntity
8
0
100
AcDbLine
10
594.28427124746213
20
144.00000000000003
30
0
11
720.00000000000011
21
144.00000000000003
31
0
0
LINE
5
143
100
AcDbEntity
8
0
100
AcDbLine
10
700.00000000000011
20
306.28427124746202
30
0
11
594.28427124746213
21
412
31
0
0
LINE
5
144
100
AcDbEntity
8
0
100
AcDbLine
10
700.00000000000011
20
306.28427124746202
30
0
11
720.00000000000011
21
306.28427124746196
31
0
0
LINE
5
145
100
AcDbEntity
8
0
100
AcDbLine
10
537.71572875253821
20
412
30
0
11
432
21
306.28427124746207
31
0
0
LINE
5
146
100
AcDbEntity
8
0
100
AcDbLine
10
432
20
249.71572875253855
30
0
11
537.71572875253787
21
144.00000000000003
31
0
0
LINE
5
147
100
AcDbEntity
8
0
100
AcDbLine
10
580.14213562373129
20
144.00000000000003
30
0
11
700.00000000000011
21
263.85786437626916
31
0
0
LINE
5
148
100
AcDbEntity
8
0
100
AcDbLine
10
700.00000000000011
20
292.14213562373124
30
0
11
580.14213562373129
21
412.00000000000011
31
0
0
LINE
5
149
100
AcDbEntity
8
0
100
AcDbLine
10
551.85786437626905
20
412.00000000000011
30
0
11
432
21
292.14213562373141
31
0
0
LINE
5
150
100
AcDbEntity
8
0
100
AcDbLine
10
432
20
263.85786437626894
30
0
11
551.85786437626894
21
144.00000000000003
31
0
0
LINE
5
151
100
AcDbEntity
8
0
100
AcDbLine
10
412
20
150.99999999999923
30
0
11
20
21
150.99999999999923
31
0
0
LINE
5
152
100
AcDbEntity
8
0
100
AcDbLine
10
20
20
170.9999999999992
30
0
11
412
21
170.99999999999949
31
0
0
LINE
5
153
100
AcDbEntity
8
0
100
AcDbLine
10
412
20
160.99999999999923
30
0
11
20
21
160.99999999999923
31
0
0
LINE
5
154
100
AcDbEntity
8
0
100
AcDbLine
10
20
20
395.0000000000008
30
0
11
412
21
395.00000000000119
31
0
0
LINE
5
155
100
AcDbEntity
8
0
100
AcDbLine
10
412
20
385.00000000000085
30
0
11
20
21
385.00000000000085
31
0
0
LINE
5
156
100
AcDbEntity
8
0
100
AcDbLine
10
20
20
405.00000000000057
30
0
11
412
21
405.00000000000085
31
0
0
LINE
5
157
100
AcDbEntity
8
0
100
AcDbLine
10
720.00000000000011
20
405.00000000000057
30
0
11
1112.0000000000002
21
405.00000000000057
31
0
0
LINE
5
158
100
AcDbEntity
8
0
100
AcDbLine
10
1112.0000000000002
20
395.00000000000085
30
0
11
720.00000000000011
21
395.00000000000085
31
0
0
LINE
5
159
100
AcDbEntity
8
0
100
AcDbLine
10
720.00000000000011
20
385.00000000000063
30
0
11
1112.0000000000002
21
385.00000000000091
31
0
0
LINE
5
160
100
AcDbEntity
8
0
100
AcDbLine
10
1112.0000000000002
20
170.99999999999949
30
0
11
720.00000000000011
21
170.99999999999949
31
0
0
LINE
5
161
100
AcDbEntity
8
0
100
AcDbLine
10
720.00000000000011
20
160.99999999999923
30
0
11
1112.0000000000002
21
160.99999999999923
31
0
0
LINE
5
162
100
AcDbEntity
8
0
100
AcDbLine
10
1112.0000000000002
20
150.99999999999923
30
0
11
720.00000000000011
21
150.99999999999923
31
0
0
CIRCLE
5
163
100
AcDbEntity
8
0
100
AcDbCircle
10
70
20
160.99999999999923
30
0
40
2.4999999999999991
210
0
220
0
230
1
0
CIRCLE
5
164
100
AcDbEntity
8
0
100
AcDbCircle
10
70
20
395.00000000000085
30
0
40
2.500000000000004
210
0
220
0
230
1
0
CIRCLE
5
165
100
AcDbEntity
8
0
100
AcDbCircle
10
1062.0000000000002
20
395.00000000000085
30
0
40
2.5
210
0
220
0
230
1
0
CIRCLE
5
166
100
AcDbEntity
8
0
100
AcDbCircle
10
1062.0000000000002
20
160.99999999999923
30
0
40
2.5
210
0
220
0
230
1
0
CIRCLE
5
167
100
AcDbEntity
8
0
100
AcDbCircle
10
167.33333333333334
20
160.99999999999923
30
0
40
2.4999999999999991
210
0
220
0
230
1
0
CIRCLE
5
168
100
AcDbEntity
8
0
100
AcDbCircle
10
264.66666666666669
20
160.99999999999923
30
0
40
2.4999999999999991
210
0
220
0
230
1
0
CIRCLE
5
169
100
AcDbEntity
8
0
100
AcDbCircle
10
362
20
160.99999999999923
30
0
40
2.4999999999999991
210
0
220
0
230
1
0
CIRCLE
5
170
100
AcDbEntity
8
0
100
AcDbCircle
10
964.66666666666686
20
160.99999999999923
30
0
40
2.5
210
0
220
0
230
1
0
CIRCLE
5
171
100
AcDbEntity
8
0
100
AcDbCircle
10
867.33333333333348
20
160.99999999999923
30
0
40
2.5
210
0
220
0
230
1
0
CIRCLE
5
172
100
AcDbEntity
8
0
100
AcDbCircle
10
964.66666666666686
20
395.00000000000085
30
0
40
2.5
210
0
220
0
230
1
0
CIRCLE
5
173
100
AcDbEntity
8
0
100
AcDbCircle
10
867.33333333333348
20
395.00000000000085
30
0
40
2.5
210
0
220
0
230
1
0
CIRCLE
5
174
100
AcDbEntity
8
0
100
AcDbCircle
10
482
20
422
30
0
40
2.5000000000000036
210
0
220
0
230
1
0
CIRCLE
5
175
100
AcDbEntity
8
0
100
AcDbCircle
10
482
20
134.00000000000006
30
0
40
2.5000000000000138
210
0
220
0
230
1
0
CIRCLE
5
176
100
AcDbEntity
8
0
100
AcDbCircle
10
566.00000000000011
20
422
30
0
40
2.5000000000000036
210
0
220
0
230
1
0
CIRCLE
5
177
100
AcDbEntity
8
0
100
AcDbCircle
10
650
20
422
30
0
40
2.5000000000000036
210
0
220
0
230
1
0
CIRCLE
5
178
100
AcDbEntity
8
0
100
AcDbCircle
10
566.00000000000011
20
134.00000000000006
30
0
40
2.5000000000000138
210
0
220
0
230
1
0
CIRCLE
5
179
100
AcDbEntity
8
0
100
AcDbCircle
10
650
20
134.00000000000006
30
0
40
2.5000000000000138
210
0
220
0
230
1
0
CIRCLE
5
180
100
AcDbEntity
8
0
100
AcDbCircle
10
770.00000000000011
20
160.99999999999923
30
0
40
2.5000000000000053
210
0
220
0
230
1
0
CIRCLE
5
181
100
AcDbEntity
8
0
100
AcDbCircle
10
770.00000000000011
20
395.00000000000085
30
0
40
2.5
210
0
220
0
230
1
0
CIRCLE
5
182
100
AcDbEntity
8
0
100
AcDbCircle
10
167.33333333333334
20
395.00000000000085
30
0
40
2.500000000000004
210
0
220
0
230
1
0
CIRCLE
5
183
100
AcDbEntity
8
0
100
AcDbCircle
10
264.66666666666669
20
395.00000000000085
30
0
40
2.500000000000004
210
0
220
0
230
1
0
CIRCLE
5
184
100
AcDbEntity
8
0
100
AcDbCircle
10
362
20
395.00000000000085
30
0
40
2.500000000000004
210
0
220
0
230
1
0
CIRCLE
5
185
100
AcDbEntity
8
0
100
AcDbCircle
10
616.00000000000023
20
179.85786437626933
30
0
40
2.4999999999999876
210
0
220
0
230
1
0
CIRCLE
5
186
100
AcDbEntity
8
0
100
AcDbCircle
10
516.00000000000023
20
179.85786437626911
30
0
40
2.5000000000000004
210
0
220
0
230
1
0
CIRCLE
5
187
100
AcDbEntity
8
0
100
AcDbCircle
10
467.85786437626933
20
328.00000000000011
30
0
40
2.499999999999988
210
0
220
0
230
1
0
CIRCLE
5
188
100
AcDbEntity
8
0
100
AcDbCircle
10
467.85786437626933
20
228.00000000000011
30
0
40
2.4999999999999982
210
0
220
0
230
1
0
CIRCLE
5
189
100
AcDbEntity
8
0
100
AcDbCircle
10
616
20
376.14213562373124
30
0
40
2.499999999999968
210
0
220
0
230
1
0
CIRCLE
5
190
100
AcDbEntity
8
0
100
AcDbCircle
10
664.14213562373129
20
328.00000000000011
30
0
40
2.4999999999999845
210
0
220
0
230
1
0
CIRCLE
5
191
100
AcDbEntity
8
0
100
AcDbCircle
10
664.14213562373084
20
228.00000000000011
30
0
40
2.50000000000002
210
0
220
0
230
1
0
CIRCLE
5
192
100
AcDbEntity
8
0
100
AcDbCircle
10
516.00000000000023
20
376.14213562373095
30
0
40
2.5000000000000093
210
0
220
0
230
1
0
ENDSEC
0
SECTION
2
OBJECTS
0
DICTIONARY
5
C
100
AcDbDictionary
3
ACAD_GROUP
350
D
3
ACAD_MLINESTYLE
350
17
0
DICTIONARY
5
D
100
AcDbDictionary
0
DICTIONARY
5
1A
330
C
100
AcDbDictionary
0
DICTIONARY
5
17
100
AcDbDictionary
0
ENDSEC
0
EOF
