0
SECTION
2
HEADER
9
$INSUNITS
70
4
9
$ACADVER
1
AC1014
9
$HANDSEED
5
FFFF
0
ENDSEC
0
SECTION
2
TABLES
0
TABLE
2
VPORT
5
8
100
AcDbSymbolTable
0
ENDTAB
0
TABLE
2
LTYPE
5
5
100
AcDbSymbolTable
0
LTYPE
5
14
100
AcDbSymbolTableRecord
100
AcDbLinetypeTableRecord
2
BYBLOCK
70
0
0
LTYPE
5
15
100
AcDbSymbolTableRecord
100
AcDbLinetypeTableRecord
2
BYLAYER
70
0
0
ENDTAB
0
TABLE
2
LAYER
5
2
100
AcDbSymbolTable
70
2
0
LAYER
5
50
100
AcDbSymbolTableRecord
100
AcDbLayerTableRecord
2
0
70
0
6
CONTINUOUS
0
ENDTAB
0
TABLE
2
STYLE
5
3
100
AcDbSymbolTable
70
1
0
STYLE
5
11
100
AcDbSymbolTableRecord
100
AcDbTextStyleTableRecord
2
STANDARD
70
0
0
ENDTAB
0
TABLE
2
VIEW
5
6
100
AcDbSymbolTable
70
0
0
ENDTAB
0
TABLE
2
UCS
5
7
100
AcDbSymbolTable
70
0
0
ENDTAB
0
TABLE
2
APPID
5
9
100
AcDbSymbolTable
70
2
0
APPID
5
12
100
AcDbSymbolTableRecord
100
AcDbRegAppTableRecord
2
ACAD
70
0
0
ENDTAB
0
TABLE
2
DIMSTYLE
5
A
100
AcDbSymbolTable
70
1
0
ENDTAB
0
TABLE
2
BLOCK_RECORD
5
1
100
AcDbSymbolTable
70
1
0
BLOCK_RECORD
5
1F
100
AcDbSymbolTableRecord
100
AcDbBlockTableRecord
2
*MODEL_SPACE
0
BLOCK_RECORD
5
1B
100
AcDbSymbolTableRecord
100
AcDbBlockTableRecord
2
*PAPER_SPACE
0
ENDTAB
0
ENDSEC
0
SECTION
2
BLOCKS
0
BLOCK
5
20
100
AcDbEntity
100
AcDbBlockBegin
2
*MODEL_SPACE
0
ENDBLK
5
21
100
AcDbEntity
100
AcDbBlockEnd
0
BLOCK
5
1C
100
AcDbEntity
100
AcDbBlockBegin
2
*PAPER_SPACE
0
ENDBLK
5
1D
100
AcDbEntity
100
AcDbBlockEnd
0
ENDSEC
0
SECTION
2
ENTITIES
0
LWPOLYLINE
5
100
100
AcDbEntity
8
0
100
AcDbPolyline
90
4
70
1
43
0.0
10
0
20
0
10
556.00000000000011
20
0
10
556.00000000000011
20
556.00000000000011
10
0
20
556.00000000000011
0
CIRCLE
5
101
100
AcDbEntity
8
0
100
AcDbCircle
10
10
20
10
30
0
40
1.5874999999999995
210
0
220
0
230
1
0
LINE
5
102
100
AcDbEntity
8
0
100
AcDbLine
10
0
20
0
30
0
11
1132.0000000000002
21
1.9721522630525295e-30
31
0
0
LINE
5
103
100
AcDbEntity
8
0
100
AcDbLine
10
0
20
556.00000000000011
30
0
11
0
21
0
31
0
0
CIRCLE
5
104
100
AcDbEntity
8
0
100
AcDbCircle
10
278.00000000000006
20
10
30
0
40
1.5874999999999995
210
0
220
0
230
1
0
CIRCLE
5
105
100
AcDbEntity
8
0
100
AcDbCircle
10
10
20
278.00000000000006
30
0
40
1.5874999999999995
210
0
220
0
230
1
0
CIRCLE
5
106
100
AcDbEntity
8
0
100
AcDbCircle
10
38.000000000000007
20
38.000000000000007
30
0
40
1.5875000000000008
210
0
220
0
230
1
0
CIRCLE
5
107
100
AcDbEntity
8
0
100
AcDbCircle
10
86.000000000000014
20
86.000000000000014
30
0
40
1.587500000000005
210
0
220
0
230
1
0
CIRCLE
5
108
100
AcDbEntity
8
0
100
AcDbCircle
10
134.00000000000003
20
38.000000000000007
30
0
40
1.5875000000000008
210
0
220
0
230
1
0
CIRCLE
5
109
100
AcDbEntity
8
0
100
AcDbCircle
10
230.00000000000003
20
38.000000000000007
30
0
40
1.5875000000000008
210
0
220
0
230
1
0
CIRCLE
5
110
100
AcDbEntity
8
0
100
AcDbCircle
10
326.00000000000011
20
38.000000000000007
30
0
40
1.5875000000000008
210
0
220
0
230
1
0
CIRCLE
5
111
100
AcDbEntity
8
0
100
AcDbCircle
10
422
20
38.000000000000007
30
0
40
1.5875000000000008
210
0
220
0
230
1
0
CIRCLE
5
112
100
AcDbEntity
8
0
100
AcDbCircle
10
518.00000000000011
20
38.000000000000007
30
0
40
1.5875000000000008
210
0
220
0
230
1
0
CIRCLE
5
113
100
AcDbEntity
8
0
100
AcDbCircle
10
38.000000000000007
20
134.00000000000003
30
0
40
1.5875000000000008
210
0
220
0
230
1
0
CIRCLE
5
114
100
AcDbEntity
8
0
100
AcDbCircle
10
134.00000000000003
20
134.00000000000003
30
0
40
1.5875000000000008
210
0
220
0
230
1
0
CIRCLE
5
115
100
AcDbEntity
8
0
100
AcDbCircle
10
230.00000000000003
20
134.00000000000003
30
0
40
1.5875000000000008
210
0
220
0
230
1
0
CIRCLE
5
116
100
AcDbEntity
8
0
100
AcDbCircle
10
326.00000000000011
20
134.00000000000003
30
0
40
1.5875000000000008
210
0
220
0
230
1
0
CIRCLE
5
117
100
AcDbEntity
8
0
100
AcDbCircle
10
422
20
134.00000000000003
30
0
40
1.5875000000000008
210
0
220
0
230
1
0
CIRCLE
5
118
100
AcDbEntity
8
0
100
AcDbCircle
10
518.00000000000011
20
134.00000000000003
30
0
40
1.5875000000000008
210
0
220
0
230
1
0
CIRCLE
5
119
100
AcDbEntity
8
0
100
AcDbCircle
10
38.000000000000007
20
230.00000000000003
30
0
40
1.5875000000000008
210
0
220
0
230
1
0
CIRCLE
5
120
100
AcDbEntity
8
0
100
AcDbCircle
10
134.00000000000003
20
230.00000000000003
30
0
40
1.5875000000000008
210
0
220
0
230
1
0
CIRCLE
5
121
100
AcDbEntity
8
0
100
AcDbCircle
10
230.00000000000003
20
230.00000000000003
30
0
40
1.5875000000000008
210
0
220
0
230
1
0
CIRCLE
5
122
100
AcDbEntity
8
0
100
AcDbCircle
10
326.00000000000011
20
230.00000000000003
30
0
40
1.5875000000000008
210
0
220
0
230
1
0
CIRCLE
5
123
100
AcDbEntity
8
0
100
AcDbCircle
10
422
20
230.00000000000003
30
0
40
1.5875000000000008
210
0
220
0
230
1
0
CIRCLE
5
124
100
AcDbEntity
8
0
100
AcDbCircle
10
518.00000000000011
20
230.00000000000003
30
0
40
1.5875000000000008
210
0
220
0
230
1
0
CIRCLE
5
125
100
AcDbEntity
8
0
100
AcDbCircle
10
38.000000000000007
20
326.00000000000011
30
0
40
1.5875000000000008
210
0
220
0
230
1
0
CIRCLE
5
126
100
AcDbEntity
8
0
100
AcDbCircle
10
134.00000000000003
20
326.00000000000011
30
0
40
1.5875000000000008
210
0
220
0
230
1
0
CIRCLE
5
127
100
AcDbEntity
8
0
100
AcDbCircle
10
230.00000000000003
20
326.00000000000011
30
0
40
1.5875000000000008
210
0
220
0
230
1
0
CIRCLE
5
128
100
AcDbEntity
8
0
100
AcDbCircle
10
326.00000000000011
20
326.00000000000011
30
0
40
1.5875000000000008
210
0
220
0
230
1
0
CIRCLE
5
129
100
AcDbEntity
8
0
100
AcDbCircle
10
422
20
326.00000000000011
30
0
40
1.5875000000000008
210
0
220
0
230
1
0
CIRCLE
5
130
100
AcDbEntity
8
0
100
AcDbCircle
10
518.00000000000011
20
326.00000000000011
30
0
40
1.5875000000000008
210
0
220
0
230
1
0
CIRCLE
5
131
100
AcDbEntity
8
0
100
AcDbCircle
10
38.000000000000007
20
422
30
0
40
1.5875000000000008
210
0
220
0
230
1
0
CIRCLE
5
132
100
AcDbEntity
8
0
100
AcDbCircle
10
134.00000000000003
20
422
30
0
40
1.5875000000000008
210
0
220
0
230
1
0
CIRCLE
5
133
100
AcDbEntity
8
0
100
AcDbCircle
10
230.00000000000003
20
422
30
0
40
1.5875000000000008
210
0
220
0
230
1
0
CIRCLE
5
134
100
AcDbEntity
8
0
100
AcDbCircle
10
326.00000000000011
20
422
30
0
40
1.5875000000000008
210
0
220
0
230
1
0
CIRCLE
5
135
100
AcDbEntity
8
0
100
AcDbCircle
10
422
20
422
30
0
40
1.5875000000000008
210
0
220
0
230
1
0
CIRCLE
5
136
100
AcDbEntity
8
0
100
AcDbCircle
10
518.00000000000011
20
422
30
0
40
1.5875000000000008
210
0
220
0
230
1
0
CIRCLE
5
137
100
AcDbEntity
8
0
100
AcDbCircle
10
38.000000000000007
20
518.00000000000011
30
0
40
1.5875000000000008
210
0
220
0
230
1
0
CIRCLE
5
138
100
AcDbEntity
8
0
100
AcDbCircle
10
134.00000000000003
20
518.00000000000011
30
0
40
1.5875000000000008
210
0
220
0
230
1
0
CIRCLE
5
139
100
AcDbEntity
8
0
100
AcDbCircle
10
230.00000000000003
20
518.00000000000011
30
0
40
1.5875000000000008
210
0
220
0
230
1
0
CIRCLE
5
140
100
AcDbEntity
8
0
100
AcDbCircle
10
326.00000000000011
20
518.00000000000011
30
0
40
1.5875000000000008
210
0
220
0
230
1
0
CIRCLE
5
141
100
AcDbEntity
8
0
100
AcDbCircle
10
422
20
518.00000000000011
30
0
40
1.5875000000000008
210
0
220
0
230
1
0
CIRCLE
5
142
100
AcDbEntity
8
0
100
AcDbCircle
10
518.00000000000011
20
518.00000000000011
30
0
40
1.5875000000000008
210
0
220
0
230
1
0
CIRCLE
5
143
100
AcDbEntity
8
0
100
AcDbCircle
10
182.00000000000003
20
86.000000000000014
30
0
40
1.587500000000005
210
0
220
0
230
1
0
CIRCLE
5
144
100
AcDbEntity
8
0
100
AcDbCircle
10
278.00000000000006
20
86.000000000000014
30
0
40
1.587500000000005
210
0
220
0
230
1
0
CIRCLE
5
145
100
AcDbEntity
8
0
100
AcDbCircle
10
374.00000000000006
20
86.000000000000014
30
0
40
1.587500000000005
210
0
220
0
230
1
0
CIRCLE
5
146
100
AcDbEntity
8
0
100
AcDbCircle
10
470.00000000000006
20
86.000000000000014
30
0
40
1.587500000000005
210
0
220
0
230
1
0
CIRCLE
5
147
100
AcDbEntity
8
0
100
AcDbCircle
10
86.000000000000014
20
182.00000000000003
30
0
40
1.587500000000005
210
0
220
0
230
1
0
CIRCLE
5
148
100
AcDbEntity
8
0
100
AcDbCircle
10
182.00000000000003
20
182.00000000000003
30
0
40
1.587500000000005
210
0
220
0
230
1
0
CIRCLE
5
149
100
AcDbEntity
8
0
100
AcDbCircle
10
278.00000000000006
20
182.00000000000003
30
0
40
1.587500000000005
210
0
220
0
230
1
0
CIRCLE
5
150
100
AcDbEntity
8
0
100
AcDbCircle
10
374.00000000000006
20
182.00000000000003
30
0
40
1.587500000000005
210
0
220
0
230
1
0
CIRCLE
5
151
100
AcDbEntity
8
0
100
AcDbCircle
10
470.00000000000006
20
182.00000000000003
30
0
40
1.587500000000005
210
0
220
0
230
1
0
CIRCLE
5
152
100
AcDbEntity
8
0
100
AcDbCircle
10
86.000000000000014
20
278.00000000000006
30
0
40
1.587500000000005
210
0
220
0
230
1
0
CIRCLE
5
153
100
AcDbEntity
8
0
100
AcDbCircle
10
182.00000000000003
20
278.00000000000006
30
0
40
1.587500000000005
210
0
220
0
230
1
0
CIRCLE
5
154
100
AcDbEntity
8
0
100
AcDbCircle
10
278.00000000000006
20
278.00000000000006
30
0
40
1.587500000000005
210
0
220
0
230
1
0
CIRCLE
5
155
100
AcDbEntity
8
0
100
AcDbCircle
10
374.00000000000006
20
278.00000000000006
30
0
40
1.587500000000005
210
0
220
0
230
1
0
CIRCLE
5
156
100
AcDbEntity
8
0
100
AcDbCircle
10
470.00000000000006
20
278.00000000000006
30
0
40
1.587500000000005
210
0
220
0
230
1
0
CIRCLE
5
157
100
AcDbEntity
8
0
100
AcDbCircle
10
86.000000000000014
20
374.00000000000006
30
0
40
1.587500000000005
210
0
220
0
230
1
0
CIRCLE
5
158
100
AcDbEntity
8
0
100
AcDbCircle
10
182.00000000000003
20
374.00000000000006
30
0
40
1.587500000000005
210
0
220
0
230
1
0
CIRCLE
5
159
100
AcDbEntity
8
0
100
AcDbCircle
10
278.00000000000006
20
374.00000000000006
30
0
40
1.587500000000005
210
0
220
0
230
1
0
CIRCLE
5
160
100
AcDbEntity
8
0
100
AcDbCircle
10
374.00000000000006
20
374.00000000000006
30
0
40
1.587500000000005
210
0
220
0
230
1
0
CIRCLE
5
161
100
AcDbEntity
8
0
100
AcDbCircle
10
470.00000000000006
20
374.00000000000006
30
0
40
1.587500000000005
210
0
220
0
230
1
0
CIRCLE
5
162
100
AcDbEntity
8
0
100
AcDbCircle
10
86.000000000000014
20
470.00000000000006
30
0
40
1.587500000000005
210
0
220
0
230
1
0
CIRCLE
5
163
100
AcDbEntity
8
0
100
AcDbCircle
10
182.00000000000003
20
470.00000000000006
30
0
40
1.587500000000005
210
0
220
0
230
1
0
CIRCLE
5
164
100
AcDbEntity
8
0
100
AcDbCircle
10
278.00000000000006
20
470.00000000000006
30
0
40
1.587500000000005
210
0
220
0
230
1
0
CIRCLE
5
165
100
AcDbEntity
8
0
100
AcDbCircle
10
374.00000000000006
20
470.00000000000006
30
0
40
1.587500000000005
210
0
220
0
230
1
0
CIRCLE
5
166
100
AcDbEntity
8
0
100
AcDbCircle
10
470.00000000000006
20
470.00000000000006
30
0
40
1.587500000000005
210
0
220
0
230
1
0
CIRCLE
5
167
100
AcDbEntity
8
0
100
AcDbCircle
10
546.00000000000011
20
10
30
0
40
1.5874999999999995
210
0
220
0
230
1
0
CIRCLE
5
168
100
AcDbEntity
8
0
100
AcDbCircle
10
546.00000000000011
20
278.00000000000006
30
0
40
1.5874999999999995
210
0
220
0
230
1
0
CIRCLE
5
169
100
AcDbEntity
8
0
100
AcDbCircle
10
10
20
546.00000000000011
30
0
40
1.5874999999999995
210
0
220
0
230
1
0
CIRCLE
5
170
100
AcDbEntity
8
0
100
AcDbCircle
10
278.00000000000006
20
546.00000000000011
30
0
40
1.5874999999999995
210
0
220
0
230
1
0
CIRCLE
5
171
100
AcDbEntity
8
0
100
AcDbCircle
10
546.00000000000011
20
546.00000000000011
30
0
40
1.5874999999999995
210
0
220
0
230
1
0
LINE
5
172
100
AcDbEntity
8
0
100
AcDbLine
10
576.00000000000011
20
556.00000000000011
30
0
11
576.00000000000011
21
0
31
0
0
LWPOLYLINE
5
173
100
AcDbEntity
8
0
100
AcDbPolyline
90
4
70
1
43
0.0
10
1132.0000000000002
20
0
10
1132.0000000000002
20
556.00000000000011
10
576.00000000000011
20
556.00000000000011
10
576.00000000000011
20
0
0
CIRCLE
5
174
100
AcDbEntity
8
0
100
AcDbCircle
10
806.00000000000011
20
230.00000000000003
30
0
40
1.5875000000000008
210
0
220
0
230
1
0
CIRCLE
5
175
100
AcDbEntity
8
0
100
AcDbCircle
10
998.00000000000011
20
38.000000000000007
30
0
40
1.5875000000000008
210
0
220
0
230
1
0
CIRCLE
5
176
100
AcDbEntity
8
0
100
AcDbCircle
10
662.00000000000023
20
278.00000000000006
30
0
40
1.587500000000005
210
0
220
0
230
1
0
CIRCLE
5
177
100
AcDbEntity
8
0
100
AcDbCircle
10
662.00000000000023
20
182.00000000000003
30
0
40
1.587500000000005
210
0
220
0
230
1
0
CIRCLE
5
178
100
AcDbEntity
8
0
100
AcDbCircle
10
662.00000000000023
20
470.00000000000006
30
0
40
1.587500000000005
210
0
220
0
230
1
0
CIRCLE
5
179
100
AcDbEntity
8
0
100
AcDbCircle
10
998.00000000000011
20
134.00000000000003
30
0
40
1.5875000000000008
210
0
220
0
230
1
0
CIRCLE
5
180
100
AcDbEntity
8
0
100
AcDbCircle
10
902.00000000000023
20
326.00000000000011
30
0
40
1.5875000000000008
210
0
220
0
230
1
0
CIRCLE
5
181
100
AcDbEntity
8
0
100
AcDbCircle
10
806.00000000000011
20
326.00000000000011
30
0
40
1.5875000000000008
210
0
220
0
230
1
0
CIRCLE
5
182
100
AcDbEntity
8
0
100
AcDbCircle
10
806.00000000000011
20
38.000000000000007
30
0
40
1.5875000000000008
210
0
220
0
230
1
0
CIRCLE
5
183
100
AcDbEntity
8
0
100
AcDbCircle
10
662.00000000000023
20
86.000000000000014
30
0
40
1.587500000000005
210
0
220
0
230
1
0
CIRCLE
5
184
100
AcDbEntity
8
0
100
AcDbCircle
10
710.00000000000011
20
422
30
0
40
1.5875000000000008
210
0
220
0
230
1
0
CIRCLE
5
185
100
AcDbEntity
8
0
100
AcDbCircle
10
586.00000000000011
20
546.00000000000011
30
0
40
1.5874999999999995
210
0
220
0
230
1
0
CIRCLE
5
186
100
AcDbEntity
8
0
100
AcDbCircle
10
1122.0000000000002
20
10
30
0
40
1.5874999999999995
210
0
220
0
230
1
0
CIRCLE
5
187
100
AcDbEntity
8
0
100
AcDbCircle
10
1122.0000000000002
20
546.00000000000011
30
0
40
1.5874999999999995
210
0
220
0
230
1
0
CIRCLE
5
188
100
AcDbEntity
8
0
100
AcDbCircle
10
662.00000000000023
20
374.00000000000006
30
0
40
1.587500000000005
210
0
220
0
230
1
0
CIRCLE
5
189
100
AcDbEntity
8
0
100
AcDbCircle
10
1122.0000000000002
20
278.00000000000006
30
0
40
1.5874999999999995
210
0
220
0
230
1
0
CIRCLE
5
190
100
AcDbEntity
8
0
100
AcDbCircle
10
710.00000000000011
20
134.00000000000003
30
0
40
1.5875000000000008
210
0
220
0
230
1
0
CIRCLE
5
191
100
AcDbEntity
8
0
100
AcDbCircle
10
614
20
518.00000000000011
30
0
40
1.5875000000000008
210
0
220
0
230
1
0
CIRCLE
5
192
100
AcDbEntity
8
0
100
AcDbCircle
10
950.00000000000011
20
470.00000000000006
30
0
40
1.587500000000005
210
0
220
0
230
1
0
CIRCLE
5
193
100
AcDbEntity
8
0
100
AcDbCircle
10
758.00000000000011
20
278.00000000000006
30
0
40
1.587500000000005
210
0
220
0
230
1
0
CIRCLE
5
194
100
AcDbEntity
8
0
100
AcDbCircle
10
998.00000000000011
20
518.00000000000011
30
0
40
1.5875000000000008
210
0
220
0
230
1
0
CIRCLE
5
195
100
AcDbEntity
8
0
100
AcDbCircle
10
902.00000000000023
20
518.00000000000011
30
0
40
1.5875000000000008
210
0
220
0
230
1
0
CIRCLE
5
196
100
AcDbEntity
8
0
100
AcDbCircle
10
854
20
10
30
0
40
1.5874999999999995
210
0
220
0
230
1
0
CIRCLE
5
197
100
AcDbEntity
8
0
100
AcDbCircle
10
586.00000000000011
20
278.00000000000006
30
0
40
1.5874999999999995
210
0
220
0
230
1
0
CIRCLE
5
198
100
AcDbEntity
8
0
100
AcDbCircle
10
1094.0000000000002
20
422
30
0
40
1.5875000000000008
210
0
220
0
230
1
0
CIRCLE
5
199
100
AcDbEntity
8
0
100
AcDbCircle
10
1094.0000000000002
20
134.00000000000003
30
0
40
1.5875000000000008
210
0
220
0
230
1
0
CIRCLE
5
200
100
AcDbEntity
8
0
100
AcDbCircle
10
614
20
326.00000000000011
30
0
40
1.5875000000000008
210
0
220
0
230
1
0
CIRCLE
5
201
100
AcDbEntity
8
0
100
AcDbCircle
10
902.00000000000023
20
134.00000000000003
30
0
40
1.5875000000000008
210
0
220
0
230
1
0
CIRCLE
5
202
100
AcDbEntity
8
0
100
AcDbCircle
10
710.00000000000011
20
230.00000000000003
30
0
40
1.5875000000000008
210
0
220
0
230
1
0
CIRCLE
5
203
100
AcDbEntity
8
0
100
AcDbCircle
10
950.00000000000011
20
374.00000000000006
30
0
40
1.587500000000005
210
0
220
0
230
1
0
CIRCLE
5
204
100
AcDbEntity
8
0
100
AcDbCircle
10
614
20
422
30
0
40
1.5875000000000008
210
0
220
0
230
1
0
CIRCLE
5
205
100
AcDbEntity
8
0
100
AcDbCircle
10
1046.0000000000002
20
278.00000000000006
30
0
40
1.587500000000005
210
0
220
0
230
1
0
CIRCLE
5
206
100
AcDbEntity
8
0
100
AcDbCircle
10
710.00000000000011
20
326.00000000000011
30
0
40
1.5875000000000008
210
0
220
0
230
1
0
CIRCLE
5
207
100
AcDbEntity
8
0
100
AcDbCircle
10
902.00000000000023
20
38.000000000000007
30
0
40
1.5875000000000008
210
0
220
0
230
1
0
CIRCLE
5
208
100
AcDbEntity
8
0
100
AcDbCircle
10
614
20
38.000000000000007
30
0
40
1.5875000000000008
210
0
220
0
230
1
0
CIRCLE
5
209
100
AcDbEntity
8
0
100
AcDbCircle
10
710.00000000000011
20
518.00000000000011
30
0
40
1.5875000000000008
210
0
220
0
230
1
0
CIRCLE
5
210
100
AcDbEntity
8
0
100
AcDbCircle
10
998.00000000000011
20
230.00000000000003
30
0
40
1.5875000000000008
210
0
220
0
230
1
0
CIRCLE
5
211
100
AcDbEntity
8
0
100
AcDbCircle
10
950.00000000000011
20
86.000000000000014
30
0
40
1.587500000000005
210
0
220
0
230
1
0
CIRCLE
5
212
100
AcDbEntity
8
0
100
AcDbCircle
10
586.00000000000011
20
10
30
0
40
1.5874999999999995
210
0
220
0
230
1
0
CIRCLE
5
213
100
AcDbEntity
8
0
100
AcDbCircle
10
1094.0000000000002
20
38.000000000000007
30
0
40
1.5875000000000008
210
0
220
0
230
1
0
CIRCLE
5
214
100
AcDbEntity
8
0
100
AcDbCircle
10
998.00000000000011
20
422
30
0
40
1.5875000000000008
210
0
220
0
230
1
0
CIRCLE
5
215
100
AcDbEntity
8
0
100
AcDbCircle
10
806.00000000000011
20
134.00000000000003
30
0
40
1.5875000000000008
210
0
220
0
230
1
0
CIRCLE
5
216
100
AcDbEntity
8
0
100
AcDbCircle
10
854
20
374.00000000000006
30
0
40
1.587500000000005
210
0
220
0
230
1
0
CIRCLE
5
217
100
AcDbEntity
8
0
100
AcDbCircle
10
806.00000000000011
20
518.00000000000011
30
0
40
1.5875000000000008
210
0
220
0
230
1
0
CIRCLE
5
218
100
AcDbEntity
8
0
100
AcDbCircle
10
950.00000000000011
20
182.00000000000003
30
0
40
1.587500000000005
210
0
220
0
230
1
0
CIRCLE
5
219
100
AcDbEntity
8
0
100
AcDbCircle
10
710.00000000000011
20
38.000000000000007
30
0
40
1.5875000000000008
210
0
220
0
230
1
0
CIRCLE
5
220
100
AcDbEntity
8
0
100
AcDbCircle
10
1046.0000000000002
20
470.00000000000006
30
0
40
1.587500000000005
210
0
220
0
230
1
0
CIRCLE
5
221
100
AcDbEntity
8
0
100
AcDbCircle
10
902.00000000000023
20
230.00000000000003
30
0
40
1.5875000000000008
210
0
220
0
230
1
0
CIRCLE
5
222
100
AcDbEntity
8
0
100
AcDbCircle
10
758.00000000000011
20
182.00000000000003
30
0
40
1.587500000000005
210
0
220
0
230
1
0
CIRCLE
5
223
100
AcDbEntity
8
0
100
AcDbCircle
10
854
20
470.00000000000006
30
0
40
1.587500000000005
210
0
220
0
230
1
0
CIRCLE
5
224
100
AcDbEntity
8
0
100
AcDbCircle
10
1046.0000000000002
20
182.00000000000003
30
0
40
1.587500000000005
210
0
220
0
230
1
0
CIRCLE
5
225
100
AcDbEntity
8
0
100
AcDbCircle
10
758.00000000000011
20
86.000000000000014
30
0
40
1.587500000000005
210
0
220
0
230
1
0
CIRCLE
5
226
100
AcDbEntity
8
0
100
AcDbCircle
10
1046.0000000000002
20
86.000000000000014
30
0
40
1.587500000000005
210
0
220
0
230
1
0
CIRCLE
5
227
100
AcDbEntity
8
0
100
AcDbCircle
10
1094.0000000000002
20
326.00000000000011
30
0
40
1.5875000000000008
210
0
220
0
230
1
0
CIRCLE
5
228
100
AcDbEntity
8
0
100
AcDbCircle
10
1094.0000000000002
20
230.00000000000003
30
0
40
1.5875000000000008
210
0
220
0
230
1
0
CIRCLE
5
229
100
AcDbEntity
8
0
100
AcDbCircle
10
806.00000000000011
20
422
30
0
40
1.5875000000000008
210
0
220
0
230
1
0
CIRCLE
5
230
100
AcDbEntity
8
0
100
AcDbCircle
10
854
20
278.00000000000006
30
0
40
1.587500000000005
210
0
220
0
230
1
0
CIRCLE
5
231
100
AcDbEntity
8
0
100
AcDbCircle
10
854
20
546.00000000000011
30
0
40
1.5874999999999995
210
0
220
0
230
1
0
CIRCLE
5
232
100
AcDbEntity
8
0
100
AcDbCircle
10
998.00000000000011
20
326.00000000000011
30
0
40
1.5875000000000008
210
0
220
0
230
1
0
CIRCLE
5
233
100
AcDbEntity
8
0
100
AcDbCircle
10
1094.0000000000002
20
518.00000000000011
30
0
40
1.5875000000000008
210
0
220
0
230
1
0
CIRCLE
5
234
100
AcDbEntity
8
0
100
AcDbCircle
10
1046.0000000000002
20
374.00000000000006
30
0
40
1.587500000000005
210
0
220
0
230
1
0
CIRCLE
5
235
100
AcDbEntity
8
0
100
AcDbCircle
10
854
20
86.000000000000014
30
0
40
1.587500000000005
210
0
220
0
230
1
0
CIRCLE
5
236
100
AcDbEntity
8
0
100
AcDbCircle
10
902.00000000000023
20
422
30
0
40
1.5875000000000008
210
0
220
0
230
1
0
CIRCLE
5
237
100
AcDbEntity
8
0
100
AcDbCircle
10
614
20
134.00000000000003
30
0
40
1.5875000000000008
210
0
220
0
230
1
0
CIRCLE
5
238
100
AcDbEntity
8
0
100
AcDbCircle
10
950.00000000000011
20
278.00000000000006
30
0
40
1.587500000000005
210
0
220
0
230
1
0
CIRCLE
5
239
100
AcDbEntity
8
0
100
AcDbCircle
10
854
20
182.00000000000003
30
0
40
1.587500000000005
210
0
220
0
230
1
0
CIRCLE
5
240
100
AcDbEntity
8
0
100
AcDbCircle
10
758.00000000000011
20
374.00000000000006
30
0
40
1.587500000000005
210
0
220
0
230
1
0
CIRCLE
5
241
100
AcDbEntity
8
0
100
AcDbCircle
10
614
20
230.00000000000003
30
0
40
1.5875000000000008
210
0
220
0
230
1
0
CIRCLE
5
242
100
AcDbEntity
8
0
100
AcDbCircle
10
758.00000000000011
20
470.00000000000006
30
0
40
1.587500000000005
210
0
220
0
230
1
0
ENDSEC
0
SECTION
2
OBJECTS
0
DICTIONARY
5
C
100
AcDbDictionary
3
ACAD_GROUP
350
D
3
ACAD_MLINESTYLE
350
17
0
DICTIONARY
5
D
100
AcDbDictionary
0
DICTIONARY
5
1A
330
C
100
AcDbDictionary
0
DICTIONARY
5
17
100
AcDbDictionary
0
ENDSEC
0
EOF
